<?xml version="1.0" encoding="UTF-8"?>
<svg width="22px" height="22px" viewBox="0 0 22 22" version="1.1" xmlns="http://www.w3.org/2000/svg" xmlns:xlink="http://www.w3.org/1999/xlink">
    <!-- Generator: sketchtool 51.3 (57544) - http://www.bohemiancoding.com/sketch -->
    <title>0F3635FF-84E4-433E-9446-2F20DEA5A265</title>
    <desc>Created with sketchtool.</desc>
    <defs></defs>
    <g id="Page-1" stroke="none" stroke-width="1" fill="none" fill-rule="evenodd">
        <g id="Project" transform="translate(-1092.000000, -4227.000000)" fill="#00FFFF">
            <path d="M1113.08356,4227 L1092.91712,4227 C1092.41044,4227 1092,4227.41044 1092,4227.91644 L1092,4248.08356 C1092,4248.58956 1092.41044,4249 1092.91712,4249 L1103.6875,4249 L1103.6875,4240.75 L1100.9375,4240.75 L1100.9375,4237.3125 L1103.6875,4237.3125 L1103.6875,4234.5625 C1103.6875,4231.72106 1105.48669,4230.32269 1108.0215,4230.32269 C1109.23563,4230.32269 1110.27925,4230.41344 1110.58313,4230.45331 L1110.58313,4233.42331 L1108.82519,4233.424 C1107.44675,4233.424 1107.125,4234.07919 1107.125,4235.04031 L1107.125,4237.3125 L1110.5625,4237.3125 L1109.875,4240.75 L1107.125,4240.75 L1107.18,4249 L1113.08356,4249 C1113.58956,4249 1114,4248.58956 1114,4248.08356 L1114,4227.91644 C1114,4227.41044 1113.58956,4227 1113.08356,4227" id="facebook"></path>
        </g>
    </g>
</svg>