<?xml version="1.0" encoding="UTF-8"?>
<svg width="26px" height="20px" viewBox="0 0 26 20" version="1.1" xmlns="http://www.w3.org/2000/svg" xmlns:xlink="http://www.w3.org/1999/xlink">
    <!-- Generator: sketchtool 51.3 (57544) - http://www.bohemiancoding.com/sketch -->
    <title>AD81B4F7-C4FB-4ED5-B1F2-DDA95546B5EB</title>
    <desc>Created with sketchtool.</desc>
    <defs></defs>
    <g id="Page-1" stroke="none" stroke-width="1" fill="none" fill-rule="evenodd">
        <g id="Project" transform="translate(-1090.000000, -4314.000000)" fill="#FFF36D">
            <path d="M1116,4316.36724 C1115.04369,4316.7687 1114.01506,4317.04018 1112.93606,4317.16247 C1114.03781,4316.5372 1114.88362,4315.54816 1115.28175,4314.36916 C1114.2515,4314.94751 1113.10912,4315.36743 1111.89444,4315.59431 C1110.92106,4314.61296 1109.53494,4314 1108.00094,4314 C1105.05481,4314 1102.66687,4316.26033 1102.66687,4319.04903 C1102.66687,4319.44434 1102.714,4319.82965 1102.805,4320.19958 C1098.37119,4319.98885 1094.44113,4317.97847 1091.81025,4314.92367 C1091.35119,4315.66968 1091.08794,4316.5372 1091.08794,4317.46241 C1091.08794,4319.21361 1092.02962,4320.75947 1093.46044,4321.66468 C1092.58619,4321.63853 1091.76394,4321.41165 1091.04488,4321.03326 C1091.04406,4321.0548 1091.04406,4321.07556 1091.04406,4321.0971 C1091.04406,4323.54355 1092.88275,4325.58393 1095.3235,4326.04768 C1094.87581,4326.16305 1094.40456,4326.22457 1093.91788,4326.22457 C1093.57419,4326.22457 1093.24025,4326.19304 1092.91444,4326.13459 C1093.59288,4328.14036 1095.56319,4329.60008 1097.8975,4329.64084 C1096.07181,4330.99519 1093.77163,4331.80196 1091.27238,4331.80196 C1090.84175,4331.80196 1090.41763,4331.77812 1090,4331.73197 C1092.36031,4333.16401 1095.16425,4334 1098.177,4334 C1107.98875,4334 1113.35369,4326.30609 1113.35369,4319.6343 C1113.35369,4319.41511 1113.34881,4319.19746 1113.33825,4318.98058 C1114.38069,4318.26918 1115.285,4317.38012 1116,4316.36724" id="twitter"></path>
        </g>
    </g>
</svg>