<?xml version="1.0" encoding="UTF-8"?>
<svg width="26px" height="18px" viewBox="0 0 26 18" version="1.1" xmlns="http://www.w3.org/2000/svg" xmlns:xlink="http://www.w3.org/1999/xlink">
    <!-- Generator: sketchtool 51.3 (57544) - http://www.bohemiancoding.com/sketch -->
    <title>C7E04E3C-42D6-47AB-9FAC-44978E6A684D</title>
    <desc>Created with sketchtool.</desc>
    <defs></defs>
    <g id="Page-1" stroke="none" stroke-width="1" fill="none" fill-rule="evenodd">
        <g id="Project" transform="translate(-1090.000000, -4271.000000)" fill="#41FA70">
            <path d="M1100.3155,4283.31937 L1100.31469,4276.1288 L1107.33956,4279.73648 L1100.3155,4283.31937 Z M1115.74,4274.88279 C1115.74,4274.88279 1115.48569,4273.11934 1114.7065,4272.34278 C1113.71769,4271.3231 1112.60944,4271.3183 1112.10163,4271.25912 C1108.46325,4271 1103.00569,4271 1103.00569,4271 L1102.99431,4271 C1102.99431,4271 1097.53675,4271 1093.89837,4271.25912 C1093.38975,4271.3183 1092.28231,4271.3231 1091.29269,4272.34278 C1090.5135,4273.11934 1090.26,4274.88279 1090.26,4274.88279 C1090.26,4274.88279 1090,4276.95415 1090,4279.0247 L1090,4280.9665 C1090,4283.03785 1090.26,4285.10841 1090.26,4285.10841 C1090.26,4285.10841 1090.5135,4286.87186 1091.29269,4287.64842 C1092.28231,4288.6681 1093.5815,4288.63611 1094.16,4288.74248 C1096.24,4288.93922 1103,4289 1103,4289 C1103,4289 1108.46325,4288.992 1112.10163,4288.73288 C1112.60944,4288.6729 1113.71769,4288.6681 1114.7065,4287.64842 C1115.48569,4286.87186 1115.74,4285.10841 1115.74,4285.10841 C1115.74,4285.10841 1116,4283.03785 1116,4280.9665 L1116,4279.0247 C1116,4276.95415 1115.74,4274.88279 1115.74,4274.88279 L1115.74,4274.88279 Z" id="Youtube"></path>
        </g>
    </g>
</svg>